<svg width="16" height="27" viewBox="0 0 16 27" fill="none" xmlns="http://www.w3.org/2000/svg">
<path d="M0.5 1.71795V1.71791C0.499956 1.1366 1.11993 0.5 2.11081 0.5H13.8891C14.88 0.5 15.5 1.1366 15.5 1.71795V25.8339H15.4999V26.3339C15.4999 26.3383 15.4908 26.4198 15.3425 26.4729C15.1924 26.5266 15.0236 26.4958 14.9276 26.4241L14.9275 26.4241L8.85204 21.8906L8.85201 21.8905C8.36172 21.5247 7.63815 21.5247 7.14789 21.8906L1.07242 26.4241C0.976344 26.4958 0.807462 26.5266 0.657363 26.4729C0.509224 26.4198 0.5 26.3383 0.5 26.3339V1.71795Z" stroke="#1E90A5"/>
</svg>
